<svg width="35" height="36" viewBox="0 0 35 36" fill="none" xmlns="http://www.w3.org/2000/svg">
<g clip-path="url(#clip0_1538_1310)">
<path d="M17.5 35.5C27.165 35.5 35 27.665 35 18C35 8.33503 27.165 0.5 17.5 0.5C7.83503 0.5 0 8.33503 0 18C0 27.665 7.83503 35.5 17.5 35.5Z" fill="#2AABEE"/>
<path fill-rule="evenodd" clip-rule="evenodd" d="M7.92146 17.8153C13.0231 15.5926 16.425 14.1272 18.1271 13.4193C22.987 11.3979 23.9969 11.0467 24.6551 11.0351C24.7999 11.0325 25.1235 11.0685 25.3332 11.2386C25.5103 11.3823 25.5589 11.5763 25.5823 11.7125C25.6056 11.8487 25.6346 12.159 25.6115 12.4014C25.3482 15.1686 24.2086 21.8837 23.6289 24.983C23.3836 26.2944 22.9006 26.7342 22.4329 26.7772C21.4166 26.8707 20.6449 26.1056 19.6607 25.4603C18.1205 24.4507 17.2503 23.8222 15.7552 22.837C14.0274 21.6984 15.1475 21.0726 16.1322 20.0499C16.3899 19.7823 20.8675 15.7095 20.9542 15.34C20.9651 15.2938 20.9751 15.1215 20.8727 15.0306C20.7705 14.9397 20.6194 14.9707 20.5104 14.9955C20.356 15.0305 17.8954 16.6569 13.1288 19.8745C12.4304 20.354 11.7978 20.5877 11.231 20.5754C10.6062 20.562 9.4042 20.2221 8.51072 19.9317C7.4148 19.5755 6.54375 19.3871 6.61959 18.7821C6.6591 18.467 7.09308 18.1447 7.92146 17.8153Z" fill="white"/>
</g>
<defs>
<clipPath id="clip0_1538_1310">
<rect width="35" height="35" fill="white" transform="translate(0 0.5)"/>
</clipPath>
</defs>
</svg>
