<svg width="35" height="36" viewBox="0 0 35 36" fill="none" xmlns="http://www.w3.org/2000/svg">
<g clip-path="url(#clip0_1538_1299)">
<path d="M35 18C35 8.33502 27.165 0.5 17.5 0.5C7.83502 0.5 0 8.33502 0 18C0 27.665 7.83502 35.5 17.5 35.5C27.165 35.5 35 27.665 35 18Z" fill="#7360F2"/>
<path d="M24.585 10.7541C24.107 10.3183 22.175 8.9329 17.8719 8.91414C17.8719 8.91414 12.7973 8.61181 10.3236 10.8533C8.94652 12.2139 8.46205 14.2047 8.41095 16.6729C8.35985 19.1411 8.29377 23.7667 12.8074 25.0209H12.8117L12.8088 26.9347C12.8088 26.9347 12.78 27.7095 13.2965 27.8675C13.9211 28.0591 14.2878 27.4702 14.8843 26.8355C15.2116 26.4869 15.6637 25.975 16.0043 25.5838C19.0913 25.8405 21.4655 25.2538 21.7351 25.1672C22.3584 24.9675 25.8853 24.5209 26.4589 19.896C27.051 15.1287 26.1725 12.1132 24.585 10.7541ZM25.1081 19.554C24.624 23.4159 21.7634 23.6586 21.2359 23.8257C21.0117 23.897 18.9264 24.4094 16.3043 24.2404C16.3043 24.2404 14.3505 26.5688 13.7402 27.1742C13.6449 27.2689 13.5329 27.3071 13.4581 27.2883C13.353 27.2629 13.3242 27.14 13.3253 26.9604C13.3271 26.7037 13.342 23.78 13.342 23.78C13.342 23.78 13.3397 23.78 13.342 23.78C9.52388 22.7329 9.74648 18.796 9.78974 16.7345C9.83307 14.673 10.2251 12.9842 11.3897 11.8483C13.4821 9.97611 17.7925 10.2558 17.7925 10.2558C21.4326 10.2716 23.1768 11.3543 23.5813 11.7171C24.9242 12.853 25.6084 15.571 25.1081 19.5529V19.554Z" fill="white"/>
<path d="M19.6435 16.5647C19.5962 15.6219 19.1114 15.1267 18.1891 15.0792" stroke="white" stroke-width="0.910763" stroke-linecap="round" stroke-linejoin="round"/>
<path d="M20.8922 16.9782C20.9114 16.0999 20.648 15.366 20.102 14.7766C19.5535 14.1851 18.7943 13.8595 17.8199 13.7891" stroke="white" stroke-width="0.910763" stroke-linecap="round" stroke-linejoin="round"/>
<path d="M22.1705 17.4721C22.1588 15.948 21.6977 14.7475 20.7874 13.8709C19.877 12.9943 18.7449 12.5513 17.391 12.542" stroke="white" stroke-width="0.910763" stroke-linecap="round" stroke-linejoin="round"/>
<path d="M18.2373 19.7846C18.2373 19.7846 18.5795 19.8131 18.7636 19.589L19.1227 19.1427C19.296 18.9214 19.7139 18.7802 20.1233 19.0055C20.4301 19.1783 20.7279 19.3662 21.0157 19.5684C21.2873 19.7658 21.8436 20.2243 21.8454 20.2243C22.1104 20.4454 22.1716 20.7699 21.9911 21.1121C21.9911 21.1141 21.9897 21.1175 21.9897 21.1193C21.791 21.4595 21.5387 21.7664 21.2423 22.0284C21.2388 22.0301 21.2388 22.0318 21.2357 22.0335C20.9781 22.2461 20.7252 22.3669 20.4767 22.396C20.4401 22.4023 20.4029 22.4046 20.3659 22.4028C20.2562 22.4038 20.1472 22.3873 20.0431 22.3538L20.035 22.3421C19.6522 22.2354 19.013 21.9685 17.9486 21.3884C17.3327 21.0568 16.7463 20.6741 16.1957 20.2446C15.9197 20.0294 15.6565 19.7989 15.4073 19.5539L15.3807 19.5277L15.3542 19.5014L15.3276 19.4752C15.3187 19.4666 15.31 19.4578 15.3011 19.4489C15.0531 19.2028 14.8197 18.9428 14.6018 18.6701C14.1671 18.1264 13.7798 17.5472 13.444 16.9389C12.8567 15.8871 12.5865 15.2563 12.4786 14.8776L12.4668 14.8696C12.4329 14.7667 12.4162 14.659 12.4174 14.5508C12.4153 14.5141 12.4176 14.4774 12.424 14.4413C12.455 14.1962 12.5775 13.9461 12.7915 13.6909C12.7933 13.6879 12.795 13.6879 12.7967 13.6844C13.0618 13.3916 13.3725 13.1425 13.717 12.9464C13.7188 12.9464 13.7222 12.9447 13.7243 12.9447C14.0707 12.7665 14.3992 12.8269 14.6226 13.0873C14.6244 13.0889 15.0877 13.6385 15.2867 13.9068C15.4914 14.1914 15.6816 14.4859 15.8565 14.7892C16.0846 15.1933 15.9416 15.6071 15.7176 15.7776L15.2659 16.1323C15.0378 16.3143 15.0678 16.6522 15.0678 16.6522C15.0678 16.6522 15.737 19.1541 18.2373 19.7846Z" fill="white"/>
</g>
<defs>
<clipPath id="clip0_1538_1299">
<rect width="35" height="35" fill="white" transform="translate(0 0.5)"/>
</clipPath>
</defs>
</svg>
