<svg width="35" height="36" viewBox="0 0 35 36" fill="none" xmlns="http://www.w3.org/2000/svg">
<g clip-path="url(#clip0_1538_1307)">
<path d="M35 18C35 8.33503 27.165 0.5 17.5 0.5C7.83503 0.5 0 8.33503 0 18C0 27.665 7.83503 35.5 17.5 35.5C27.165 35.5 35 27.665 35 18Z" fill="#25D366"/>
<path fill-rule="evenodd" clip-rule="evenodd" d="M22.1901 19.5889C21.9548 19.4711 20.7979 18.9019 20.5822 18.8233C20.3665 18.7447 20.2097 18.7056 20.0528 18.9411C19.8959 19.1766 19.445 19.7067 19.3077 19.8637C19.1704 20.0208 19.0332 20.0405 18.7979 19.9226C18.5626 19.8048 17.8044 19.5564 16.9056 18.7547C16.2061 18.1307 15.7338 17.3601 15.5966 17.1246C15.4593 16.889 15.5819 16.7616 15.6997 16.6443C15.8056 16.5389 15.935 16.3695 16.0527 16.2321C16.1704 16.0947 16.2096 15.9965 16.288 15.8395C16.3664 15.6824 16.3272 15.545 16.2684 15.4273C16.2096 15.3095 15.739 14.1513 15.5429 13.68C15.3519 13.2212 15.1579 13.2834 15.0134 13.2761C14.8764 13.2693 14.7193 13.2679 14.5625 13.2679C14.4056 13.2679 14.1506 13.3267 13.9349 13.5623C13.7193 13.7978 13.1114 14.3671 13.1114 15.5254C13.1114 16.6836 13.9545 17.8025 14.0722 17.9595C14.1899 18.1166 15.7315 20.4934 18.092 21.5127C18.6534 21.7551 19.0917 21.8999 19.4334 22.0083C19.9971 22.1875 20.5101 22.1621 20.9155 22.1016C21.3677 22.034 22.3078 21.5323 22.5039 20.9828C22.6999 20.433 22.6999 19.9618 22.6411 19.8637C22.5823 19.7655 22.4254 19.7067 22.1901 19.5889ZM17.8966 25.4512H17.8934C16.4889 25.4507 15.1113 25.0733 13.9095 24.3602L13.6236 24.1905L10.6612 24.9677L11.4519 22.0792L11.2658 21.783C10.4822 20.5368 10.0684 19.0964 10.069 17.6174C10.0707 13.3017 13.5821 9.79054 17.8997 9.79054C19.9905 9.79131 21.9557 10.6065 23.4336 12.0861C24.9114 13.5656 25.7248 15.5322 25.724 17.6237C25.7223 21.9397 22.2109 25.4512 17.8966 25.4512ZM24.5584 10.9618C22.7803 9.18175 20.4158 8.20105 17.8965 8.2C12.7057 8.2 8.48101 12.4244 8.47898 17.6168C8.47828 19.2767 8.91193 20.8967 9.73604 22.3249L8.40002 27.205L13.3924 25.8954C14.7679 26.6457 16.3166 27.0412 17.8928 27.0417H17.8966C23.0869 27.0417 27.312 22.8168 27.3141 17.6244C27.3151 15.108 26.3364 12.7419 24.5584 10.9618Z" fill="white"/>
</g>
<defs>
<clipPath id="clip0_1538_1307">
<rect width="35" height="35" fill="white" transform="translate(0 0.5)"/>
</clipPath>
</defs>
</svg>
